<?xml version="1.0" encoding="UTF-8"?>
<svg xmlns="http://www.w3.org/2000/svg" xmlns:xlink="http://www.w3.org/1999/xlink" id="Layer_1" viewBox="0 0 353.48 276.3">
  <defs>
    <style>.cls-1{fill:url(#linear-gradient);fill-rule:evenodd;}</style>
    <linearGradient id="linear-gradient" x1="0" y1="138.15" x2="353.48" y2="138.15" gradientUnits="userSpaceOnUse">
      <stop offset="0" stop-color="#59bd7b"></stop>
      <stop offset="1" stop-color="#00add4"></stop>
    </linearGradient>
  </defs>
  <path class="cls-1" d="m.02,253.01h50.15v-16.32H.02v16.32H.02Zm161.06-2.61c-17.14,0-32.83-6.08-44.92-16.11-6.35,2.7-14.17,4.3-23.53,4.3-3.08,0-6.14-.19-9.17-.57,17.39,23.18,45.66,38.28,77.6,38.28s60.13-15.06,77.54-38.18c-9.72-1.48-17.6-8.33-20.24-17.3-12.37,17.82-33.44,29.59-57.3,29.59m68.6-36.19c0,6.73,5.86,12.38,12.84,12.38s12.84-5.65,12.84-12.38-5.86-12.4-12.84-12.4-12.84,5.65-12.84,12.4M20.15,161.14v-10.1H0v73.88h20.15v-48.79c3.33-4.73,12.21-8.25,18.87-8.25,2.23,0,4.13.15,5.55.46v-18.96c-9.51,0-19.04,5.19-24.43,11.77m40.75,11.31c0,17.59,16.97,20.65,30.13,23.09,8.71,1.67,15.39,3.52,15.39,8.71,0,4.58-4.13,7.49-12.84,7.49-9.51,0-20.95-5.04-26.48-10.1l-8.71,13.62c8.09,7.19,20.95,11.47,34.26,11.47,21.25,0,33.14-10.1,33.14-23.71,0-18.35-17.6-21.72-30.76-24.17-8.56-1.67-14.59-3.37-14.59-7.95,0-4.28,4.76-6.88,12.06-6.88,9.36,0,18.09,3.82,22.68,8.56l7.93-13.31c-7.46-5.82-17.77-10.1-30.76-10.1-20.15,0-31.41,10.86-31.41,23.24m83.59,0c0,17.59,16.97,20.65,30.13,23.09,8.73,1.67,15.39,3.52,15.39,8.71,0,4.58-4.13,7.49-12.84,7.49-9.51,0-20.95-5.04-26.48-10.1l-8.71,13.62c8.08,7.19,20.93,11.47,34.26,11.47,21.25,0,33.14-10.1,33.14-23.71,0-18.35-17.6-21.72-30.76-24.17-8.56-1.67-14.59-3.37-14.59-7.95,0-4.28,4.76-6.88,12.06-6.88,9.36,0,18.09,3.82,22.68,8.56l7.93-13.31c-7.46-5.82-17.77-10.1-30.76-10.1-20.15,0-31.41,10.86-31.41,23.24m16.57-80.84c-36.05,0-67.42,19.23-83.76,47.6,4.49-1.18,9.49-1.84,15.01-1.84,6.05,0,11.91.78,17.44,2.28,12.63-13.58,30.95-22.15,51.31-22.15h68.9v66.44c0,3.31-.27,6.56-.74,9.74,3.86-2.34,8.41-3.71,13.28-3.71s9.78,1.46,13.73,3.97c.36-3.29.57-6.62.57-10v-92.34h-95.75v.02h0Zm2.68-17.27h27.62c8.18-27.88,34.79-48.38,66.3-48.38,37.99,0,68.9,29.8,68.9,66.44,0,30.96-22.07,57.05-51.86,64.39v26.47c44.74-7.76,78.7-45.47,78.7-90.84,0-51-42.88-92.32-95.75-92.32-46.48,0-85.19,31.93-93.9,74.26"></path>
</svg>
